<?xml version="1.0" encoding="UTF-8"?>
<svg id="Layer_2" xmlns="http://www.w3.org/2000/svg" version="1.1" viewBox="0 0 64 64">
  <!-- Generator: Adobe Illustrator 30.5.1, SVG Export Plug-In . SVG Version: 2.1.4 Build 3)  -->
  <defs>
    <style>
      .st0 {
        fill: #ccc;
      }
    </style>
  </defs>
  <rect class="st0" width="64" height="64"/>
  <path d="M61,3v58H3V3h58M64,0H0v64h64V0h0Z"/>
  <path d="M33.5,14.09c2.01,0,3.97.23,5.9.68,1.92.46,4,1.23,6.22,2.33v6.43c-2.18-1.25-4.19-2.15-6.03-2.71-1.85-.56-3.77-.83-5.78-.83-2.51,0-4.78.52-6.81,1.56-2.02,1.04-3.6,2.5-4.72,4.39-1.12,1.89-1.68,3.99-1.68,6.3s.56,4.48,1.67,6.35,2.68,3.32,4.71,4.34c2.02,1.02,4.3,1.53,6.83,1.53,1.94,0,3.79-.28,5.55-.83,1.76-.56,3.99-1.56,6.67-3.01v6.43c-2.29,1.2-4.4,2.05-6.33,2.56-1.92.51-4.17.76-6.73.76-3.73,0-7.06-.74-9.99-2.23-2.93-1.48-5.24-3.62-6.92-6.41s-2.52-5.85-2.52-9.17c0-3.56.86-6.76,2.59-9.59,1.73-2.83,4.11-5.02,7.14-6.55,3.03-1.53,6.44-2.3,10.23-2.3v-.03Z"/>
</svg>