<?xml version="1.0" encoding="UTF-8"?>
<svg id="Layer_1" xmlns="http://www.w3.org/2000/svg" version="1.1" viewBox="0 0 64 64">
  <!-- Generator: Adobe Illustrator 30.1.0, SVG Export Plug-In . SVG Version: 2.1.1 Build 136)  -->
  <defs>
    <style>
      .st0 {
        fill: #a1b70d;
      }
    </style>
  </defs>
  <circle class="st0" cx="32" cy="32" r="30.33"/>
  <path d="M32,1.67v1.67c3.96,0,7.73.8,11.16,2.25,5.14,2.17,9.52,5.81,12.61,10.39,3.09,4.58,4.89,10.08,4.9,16.03,0,3.96-.8,7.73-2.25,11.16-2.17,5.14-5.81,9.52-10.39,12.61-4.58,3.09-10.08,4.89-16.03,4.9-3.96,0-7.73-.8-11.16-2.25-5.14-2.17-9.52-5.81-12.61-10.39-3.09-4.58-4.89-10.08-4.9-16.03,0-3.96.8-7.73,2.25-11.16,2.17-5.14,5.81-9.52,10.39-12.61,4.58-3.09,10.08-4.89,16.03-4.9V0c-4.41,0-8.63.9-12.46,2.52-5.74,2.43-10.63,6.49-14.08,11.59C2.02,19.21,0,25.38,0,32c0,4.41.9,8.63,2.52,12.46,2.43,5.74,6.49,10.63,11.59,14.08,5.11,3.45,11.27,5.47,17.89,5.47,4.41,0,8.63-.9,12.46-2.52,5.74-2.43,10.63-6.49,14.08-11.59,3.45-5.11,5.47-11.27,5.47-17.89,0-4.41-.9-8.63-2.52-12.46-2.43-5.74-6.49-10.63-11.59-14.08C44.79,2.02,38.62,0,32,0v1.67Z"/>
  <path d="M33.5,14.09c2.01,0,3.97.23,5.9.68,1.92.46,4,1.23,6.22,2.33v6.43c-2.18-1.25-4.19-2.15-6.03-2.71-1.85-.56-3.77-.83-5.78-.83-2.51,0-4.78.52-6.81,1.56-2.02,1.04-3.6,2.5-4.72,4.39-1.12,1.89-1.68,3.99-1.68,6.3s.56,4.48,1.67,6.35c1.11,1.87,2.68,3.32,4.71,4.34,2.02,1.02,4.3,1.53,6.83,1.53,1.94,0,3.79-.28,5.55-.83,1.76-.56,3.99-1.56,6.67-3.01v6.43c-2.29,1.2-4.4,2.05-6.33,2.56-1.92.51-4.17.76-6.73.76-3.73,0-7.06-.74-9.99-2.23-2.93-1.48-5.24-3.62-6.92-6.41-1.68-2.79-2.52-5.85-2.52-9.17,0-3.56.86-6.76,2.59-9.59,1.73-2.83,4.11-5.02,7.14-6.55,3.03-1.53,6.44-2.3,10.23-2.3Z"/>
  <path d="M33.5,14.09v.15c2,0,3.95.23,5.86.68,1.91.45,3.97,1.22,6.19,2.32l.06-.13h-.15v6.43h.15l.07-.13c-2.18-1.25-4.2-2.16-6.07-2.72-1.86-.56-3.8-.84-5.82-.84-2.53,0-4.83.52-6.87,1.57-2.05,1.05-3.64,2.53-4.78,4.45-1.14,1.91-1.7,4.04-1.7,6.38,0,2.38.56,4.53,1.69,6.43,1.13,1.9,2.72,3.36,4.77,4.4,2.05,1.03,4.35,1.55,6.9,1.55,1.95,0,3.82-.28,5.6-.84,1.78-.56,4.01-1.57,6.69-3.02l-.07-.13h-.15v6.43h.15l-.07-.13c-2.29,1.19-4.39,2.04-6.29,2.54-1.91.5-4.14.75-6.69.75-3.71,0-7.02-.74-9.93-2.21-2.91-1.47-5.2-3.59-6.86-6.36-1.67-2.77-2.5-5.8-2.5-9.1,0-3.54.86-6.7,2.57-9.51,1.72-2.81,4.07-4.97,7.08-6.5,3.01-1.52,6.39-2.29,10.17-2.29v-.29c-3.81,0-7.25.77-10.3,2.32-3.05,1.55-5.45,3.75-7.19,6.61-1.74,2.86-2.62,6.08-2.61,9.67,0,3.35.85,6.43,2.54,9.25,1.69,2.81,4.02,4.97,6.98,6.47,2.96,1.5,6.31,2.24,10.06,2.24,2.57,0,4.83-.25,6.77-.76,1.94-.51,4.05-1.37,6.36-2.57l.08-.13v-6.43l-.22-.13c-2.68,1.45-4.89,2.45-6.64,3-1.75.55-3.58.83-5.51.83-2.51,0-4.76-.51-6.77-1.51-2-1.01-3.55-2.43-4.65-4.28-1.1-1.85-1.65-3.94-1.65-6.28,0-2.29.55-4.36,1.66-6.23,1.11-1.87,2.66-3.31,4.66-4.33,2-1.03,4.25-1.54,6.74-1.54,1.99,0,3.91.28,5.74.83,1.83.55,3.84,1.45,6,2.69l.22-.13v-6.43l-.08-.13c-2.23-1.1-4.32-1.88-6.26-2.34-1.93-.46-3.91-.69-5.93-.69v.15Z"/>
</svg>