<?xml version="1.0" encoding="UTF-8"?>
<svg id="Layer_1" xmlns="http://www.w3.org/2000/svg" version="1.1" viewBox="0 0 64 64">
  <!-- Generator: Adobe Illustrator 30.1.0, SVG Export Plug-In . SVG Version: 2.1.1 Build 136)  -->
  <defs>
    <style>
      .st0 {
        fill: #ffd960;
      }
    </style>
  </defs>
  <circle class="st0" cx="32" cy="32" r="30.33"/>
  <path d="M32,1.67v1.67c3.96,0,7.73.8,11.16,2.25,5.14,2.17,9.52,5.81,12.61,10.39,3.09,4.58,4.89,10.08,4.9,16.03,0,3.96-.8,7.73-2.25,11.16-2.17,5.14-5.81,9.52-10.39,12.61-4.58,3.09-10.08,4.89-16.03,4.9-3.96,0-7.73-.8-11.16-2.25-5.14-2.17-9.52-5.81-12.61-10.39-3.09-4.58-4.89-10.08-4.9-16.03,0-3.96.8-7.73,2.25-11.16,2.17-5.14,5.81-9.52,10.39-12.61,4.58-3.09,10.08-4.89,16.03-4.9v-1.67s0-1.67,0-1.67c-4.41,0-8.63.9-12.46,2.52-5.74,2.43-10.63,6.49-14.08,11.59C2.02,19.21,0,25.38,0,32c0,4.41.9,8.63,2.52,12.46,2.43,5.74,6.49,10.63,11.59,14.08,5.11,3.45,11.27,5.47,17.89,5.47,4.41,0,8.63-.9,12.46-2.52,5.74-2.43,10.63-6.49,14.08-11.59,3.45-5.11,5.47-11.27,5.47-17.89,0-4.41-.9-8.63-2.52-12.46-2.43-5.74-6.49-10.63-11.59-14.08C44.79,2.02,38.62,0,32,0v1.67Z"/>
  <polygon points="22.83 14.22 22.83 29.1 41.17 29.1 41.17 14.22 48 14.22 48 49.57 41.17 49.57 41.17 34.64 22.83 34.64 22.83 49.57 16 49.57 16 14.22 22.83 14.22"/>
  <polygon points="22.83 14.22 22.68 14.22 22.68 29.1 22.83 29.24 41.17 29.24 41.32 29.1 41.32 14.37 47.86 14.37 47.86 49.42 41.32 49.42 41.32 34.64 41.17 34.49 22.83 34.49 22.68 34.64 22.68 49.42 16.14 49.42 16.14 14.37 22.83 14.37 22.83 14.22 22.68 14.22 22.83 14.22 22.83 14.07 16 14.07 15.85 14.22 15.85 49.57 16 49.71 22.83 49.71 22.97 49.57 22.97 34.79 41.03 34.79 41.03 49.57 41.17 49.71 48 49.71 48.15 49.57 48.15 14.22 48 14.07 41.17 14.07 41.03 14.22 41.03 28.95 22.97 28.95 22.97 14.22 22.83 14.07 22.83 14.22"/>
</svg>